<svg width="45" height="45" viewBox="0 0 45 45" fill="none" xmlns="http://www.w3.org/2000/svg">
<mask id="mask0_636_15" style="mask-type:luminance" maskUnits="userSpaceOnUse" x="0" y="0" width="45" height="45">
<path d="M44.5 0.5V44.5H0.5V0.5H44.5Z" fill="white" stroke="url(#paint0_linear_636_15)"/>
</mask>
<g mask="url(#mask0_636_15)">
<path d="M14.6444 4.68677H30.3585C33.5842 4.68692 36.0452 5.64555 37.6974 7.29967C39.2463 8.85066 40.1831 11.1108 40.2866 14.0453L40.2956 14.6404V30.3563C40.2954 33.5818 39.3375 36.0441 37.6828 37.6988C36.0279 39.3538 33.5645 40.3118 30.3384 40.3118H14.6444C11.4188 40.3116 8.95654 39.3538 7.30187 37.6971C5.64703 36.04 4.68896 33.5723 4.68896 30.3362V14.6422C4.68913 11.4166 5.64709 8.95447 7.30187 7.29967C8.95667 5.64489 11.4188 4.68694 14.6444 4.68677ZM19.9893 28.1243C18.7027 28.1243 17.6455 29.1816 17.6455 30.468C17.6455 31.7545 18.7027 32.8118 19.9893 32.8118H24.9954C26.3087 32.8118 27.3392 31.7464 27.3392 30.468C27.3392 29.1816 26.2818 28.1243 24.9954 28.1243H19.9893ZM15.0015 20.1555C13.715 20.1555 12.6577 21.2128 12.6577 22.4993C12.6577 23.7857 13.715 24.843 15.0015 24.843H30.0015C31.2879 24.843 32.3452 23.7857 32.3452 22.4993C32.3452 21.2128 31.2879 20.1555 30.0015 20.1555H15.0015ZM11.2515 12.1868C9.96495 12.1868 8.90771 13.244 8.90771 14.5305C8.90771 15.817 9.96495 16.8743 11.2515 16.8743H33.7515C35.0379 16.8743 36.0952 15.817 36.0952 14.5305C36.0952 13.244 35.0379 12.1868 33.7515 12.1868H11.2515Z" fill="white" fill-opacity="0.2" stroke="url(#paint1_linear_636_15)"/>
</g>
<defs>
<linearGradient id="paint0_linear_636_15" x1="-3.98816" y1="56.3558" x2="49.9542" y2="79.9117" gradientUnits="userSpaceOnUse">
<stop stop-color="white" stop-opacity="0.53"/>
<stop offset="0.0752237" stop-color="white" stop-opacity="0.62"/>
<stop offset="0.25231" stop-color="white" stop-opacity="0.82"/>
<stop offset="0.424188" stop-color="white" stop-opacity="0.49"/>
<stop offset="0.700235" stop-color="white" stop-opacity="0.8"/>
<stop offset="0.965865" stop-color="white" stop-opacity="0.74"/>
</linearGradient>
<linearGradient id="paint1_linear_636_15" x1="1.5333" y1="49.3018" x2="44.2227" y2="67.934" gradientUnits="userSpaceOnUse">
<stop stop-color="white" stop-opacity="0.53"/>
<stop offset="0.0752237" stop-color="white" stop-opacity="0.62"/>
<stop offset="0.25231" stop-color="white" stop-opacity="0.82"/>
<stop offset="0.424188" stop-color="white" stop-opacity="0.49"/>
<stop offset="0.700235" stop-color="white" stop-opacity="0.8"/>
<stop offset="0.965865" stop-color="white" stop-opacity="0.74"/>
</linearGradient>
</defs>
</svg>
