<svg width="24" height="24" viewBox="0 0 24 24" fill="none" xmlns="http://www.w3.org/2000/svg">
<g clip-path="url(#clip0_544_12)">
<mask id="mask0_544_12" style="mask-type:luminance" maskUnits="userSpaceOnUse" x="0" y="0" width="24" height="24">
<path d="M24 0H0V24H24V0Z" fill="white"/>
</mask>
<g mask="url(#mask0_544_12)">
<path d="M7.80957 2.5H16.1904C17.9108 2.50008 19.2233 3.01135 20.1045 3.89355C20.9306 4.72074 21.4302 5.92613 21.4854 7.49121L21.4902 7.80859V16.1904C21.4901 17.9107 20.9792 19.2239 20.0967 20.1064C19.2141 20.9891 17.9003 21.5 16.1797 21.5H7.80957C6.08923 21.4999 4.77604 20.9891 3.89355 20.1055C3.01097 19.2217 2.5 17.9056 2.5 16.1797V7.80957C2.50009 6.08922 3.011 4.77611 3.89355 3.89355C4.77611 3.011 6.08922 2.50009 7.80957 2.5ZM10.6602 15C9.97401 15 9.41016 15.5639 9.41016 16.25C9.41016 16.9361 9.97401 17.5 10.6602 17.5H13.3301C14.0305 17.5 14.5801 16.9318 14.5801 16.25C14.5801 15.5639 14.0162 15 13.3301 15H10.6602ZM8 10.75C7.31386 10.75 6.75 11.3139 6.75 12C6.75 12.6861 7.31386 13.25 8 13.25H16C16.6861 13.25 17.25 12.6861 17.25 12C17.25 11.3139 16.6861 10.75 16 10.75H8ZM6 6.5C5.31386 6.5 4.75 7.06386 4.75 7.75C4.75 8.43614 5.31386 9 6 9H18C18.6861 9 19.25 8.43614 19.25 7.75C19.25 7.06386 18.6861 6.5 18 6.5H6Z" fill="#262626" stroke="#BBBBBB"/>
</g>
</g>
<defs>
<clipPath id="clip0_544_12">
<rect width="24" height="24" fill="white"/>
</clipPath>
</defs>
</svg>
