<svg width="38" height="38" viewBox="0 0 38 38" fill="none" xmlns="http://www.w3.org/2000/svg">
<path d="M11.0449 0.5H26.9746C30.3349 0.500033 32.9566 1.49923 34.7354 3.2793C36.4029 4.94813 37.3821 7.35541 37.4902 10.417L37.5 11.0381V26.9609C37.5 30.3194 36.5 32.9403 34.7188 34.7207C32.9374 36.5009 30.3152 37.5 26.9551 37.5H11.0449C7.68457 37.5 5.06249 36.5004 3.28125 34.7178C1.50014 32.9352 0.500075 30.3105 0.5 26.9424V11.0391L0.511719 10.418C0.628065 7.35624 1.6113 4.94841 3.28125 3.2793C4.95116 1.61041 7.35976 0.628055 10.4229 0.511719L11.0449 0.5ZM16.6982 12.1865L8.22559 20.6543C7.88919 20.9793 7.58837 21.4243 7.35742 21.8809C7.15522 22.2806 6.99321 22.7158 6.91113 23.124L6.88086 23.2979V23.2998L6.21582 27.9697C6.05485 29.0363 6.30608 30.0516 6.96191 30.7979L7.09863 30.9434C7.7194 31.5638 8.57567 31.8691 9.4668 31.8691C9.67018 31.8691 9.86885 31.8466 10.0352 31.8281L10.0508 31.8262L14.7266 31.1611L14.7305 31.1602C15.1798 31.0928 15.6836 30.9085 16.1396 30.6768C16.5956 30.4451 17.0418 30.1462 17.3652 29.8232L17.3662 29.8242L25.8818 21.3691L26.459 20.7969L25.6875 20.54C25.3178 20.4168 24.9438 20.2566 24.5127 20.0693C24.093 19.8596 23.6941 19.6607 23.335 19.4453L23.3115 19.4316L23.0947 19.3096C22.8799 19.1807 22.6671 19.0317 22.4463 18.8662L22.4307 18.8545L22.0576 18.5791C21.9251 18.4763 21.7853 18.3637 21.6406 18.248L21.5996 18.2158L21.5918 18.2119C21.5892 18.2095 21.5862 18.2061 21.583 18.2031C21.5495 18.1716 21.5032 18.1262 21.4346 18.0576L21.4199 18.042L21.4033 18.0283L21.0498 17.7188C20.6871 17.3878 20.3041 16.998 19.9639 16.5898L19.9492 16.5723L19.9336 16.5566L19.8887 16.5029C19.859 16.4653 19.8212 16.4149 19.7773 16.3535L19.7617 16.332L19.7441 16.3115L19.4824 15.9951C19.3834 15.8676 19.2776 15.7224 19.1816 15.5742L19.1729 15.5596L19.1621 15.5459L18.8994 15.1748C18.8533 15.1062 18.8061 15.0352 18.7598 14.9619L18.623 14.7373L18.6211 14.7334L18.4619 14.457C18.4099 14.3629 18.3589 14.267 18.3086 14.1699L18.0166 13.5791C17.8167 13.1426 17.6701 12.76 17.5186 12.3623L17.2441 11.6406L16.6982 12.1865ZM25.0215 6.1709C23.533 6.16335 22.0932 6.86925 20.6855 8.19043L20.4053 8.46191L18.6367 10.2295L18.6377 10.2305C18.379 10.4728 18.283 10.823 18.3271 11.1445L18.3564 11.2842L18.3574 11.29C19.5063 15.309 22.7105 18.5145 26.7295 19.667C26.8151 19.6963 26.8911 19.7029 26.9199 19.7051C26.9731 19.7091 27.0259 19.709 27.0508 19.709C27.292 19.7089 27.5382 19.6299 27.7393 19.4668L27.8223 19.3916L27.8242 19.3896L29.5732 17.623L29.5723 17.6221C30.9713 16.2232 31.7602 14.8317 31.8711 13.3877L31.8848 13.0977V13.0908C31.8847 11.5673 31.1839 10.148 29.8623 8.74316L29.5898 8.46191C28.1235 6.99638 26.6076 6.17898 25.0215 6.1709Z" fill="white" fill-opacity="0.22" stroke="url(#paint0_linear_361_1287)"/>
<defs>
<linearGradient id="paint0_linear_361_1287" x1="-3.36778" y1="47.5894" x2="42.1836" y2="67.481" gradientUnits="userSpaceOnUse">
<stop stop-color="white" stop-opacity="0.05"/>
<stop offset="0.0752237" stop-color="white" stop-opacity="0.61"/>
<stop offset="0.25231" stop-color="white" stop-opacity="0.28"/>
<stop offset="0.424188" stop-color="white" stop-opacity="0.51"/>
<stop offset="0.700235" stop-color="white" stop-opacity="0.04"/>
<stop offset="0.965865" stop-color="white" stop-opacity="0.74"/>
</linearGradient>
</defs>
</svg>
