<svg width="45" height="45" viewBox="0 0 45 45" fill="none" xmlns="http://www.w3.org/2000/svg">
<path d="M26.2314 38.9375H39.4316C39.9386 38.9376 40.3379 39.3469 40.3379 39.8438C40.3379 40.3406 39.9386 40.7499 39.4316 40.75H26.2314C25.7244 40.75 25.3252 40.3407 25.3252 39.8438C25.3252 39.3511 25.7388 38.9375 26.2314 38.9375Z" fill="white" fill-opacity="0.2" stroke="url(#paint0_linear_361_1306)"/>
<path d="M11.3408 19.7422C11.8433 19.2397 12.6352 19.2078 13.1738 19.6475L13.2783 19.7422L25.2217 31.6475V31.6484C25.7551 32.182 25.7611 33.0501 25.2168 33.6084L19.6338 39.1914C17.7387 41.0861 14.6973 41.1898 12.6816 39.502C12.6245 39.4529 12.5709 39.4038 12.5176 39.3525L12.3535 39.1914L10.7227 37.5596L5.75391 32.5908C5.69613 32.533 5.64169 32.4753 5.58789 32.415L5.42383 32.2256C3.80773 30.2739 3.87092 27.3936 5.58301 25.5088L5.75391 25.3291L11.3408 19.7422Z" fill="white" fill-opacity="0.2" stroke="url(#paint1_linear_361_1306)"/>
<path d="M25.3662 5.75439C27.3022 3.81847 30.4437 3.75781 32.4551 5.57275L32.6465 5.75439L39.2471 12.3364C41.1822 14.2725 41.2423 17.3958 39.4277 19.4058L39.2461 19.5972L29.8711 28.9722C29.3686 29.4746 28.5776 29.5056 28.0391 29.0659L27.9346 28.9722L27.9336 28.9712L15.9902 17.0649C15.4909 16.5648 15.454 15.7714 15.8994 15.2144L15.9951 15.106L25.3652 5.75439H25.3662Z" fill="white" fill-opacity="0.2" stroke="url(#paint2_linear_361_1306)"/>
<defs>
<linearGradient id="paint0_linear_361_1306" x1="23.4061" y1="41.9597" x2="26.5887" y2="49.8723" gradientUnits="userSpaceOnUse">
<stop stop-color="white" stop-opacity="0.53"/>
<stop offset="0.0752237" stop-color="white" stop-opacity="0.62"/>
<stop offset="0.25231" stop-color="white" stop-opacity="0.82"/>
<stop offset="0.424188" stop-color="white" stop-opacity="0.49"/>
<stop offset="0.700235" stop-color="white" stop-opacity="0.8"/>
<stop offset="0.965865" stop-color="white" stop-opacity="0.74"/>
</linearGradient>
<linearGradient id="paint1_linear_361_1306" x1="1.77137" y1="46.8359" x2="28.5807" y2="58.551" gradientUnits="userSpaceOnUse">
<stop stop-color="white" stop-opacity="0.53"/>
<stop offset="0.0752237" stop-color="white" stop-opacity="0.62"/>
<stop offset="0.25231" stop-color="white" stop-opacity="0.82"/>
<stop offset="0.424188" stop-color="white" stop-opacity="0.49"/>
<stop offset="0.700235" stop-color="white" stop-opacity="0.8"/>
<stop offset="0.965865" stop-color="white" stop-opacity="0.74"/>
</linearGradient>
<linearGradient id="paint2_linear_361_1306" x1="12.7707" y1="36.4652" x2="44.1103" y2="50.1704" gradientUnits="userSpaceOnUse">
<stop stop-color="white" stop-opacity="0.53"/>
<stop offset="0.0752237" stop-color="white" stop-opacity="0.62"/>
<stop offset="0.25231" stop-color="white" stop-opacity="0.82"/>
<stop offset="0.424188" stop-color="white" stop-opacity="0.49"/>
<stop offset="0.700235" stop-color="white" stop-opacity="0.8"/>
<stop offset="0.965865" stop-color="white" stop-opacity="0.74"/>
</linearGradient>
</defs>
</svg>
