<svg xmlns="http://www.w3.org/2000/svg" width="16" height="16" viewBox="0 0 16 16">
  <path d="M9.284 13.838H13.963C14.142 13.838 14.287 13.982 14.287 14.162C14.287 14.341 14.142 14.485 13.963 14.485H9.284C9.105 14.485 8.96 14.341 8.96 14.162C8.96 13.988 9.106 13.838 9.284 13.838Z" fill="white" stroke="black"/>
  <path d="M4.027 7.027C4.205 6.849 4.496 6.837 4.703 6.997L4.74 7.027L8.987 11.275V11.275C9.189 11.477 9.191 11.828 8.987 12.034L6.995 14.026C6.319 14.702 5.218 14.741 4.497 14.132C4.478 14.116 4.46 14.1 4.441 14.082L4.384 14.026L3.838 13.481L2.045 11.688C2.026 11.669 2.008 11.649 1.991 11.628L1.934 11.564C1.36 10.88 1.382 9.859 1.985 9.152L2.045 9.091L4.027 7.027Z" fill="white" stroke="black"/>
  <path d="M8.977 2.04C9.702 1.315 10.801 1.293 11.547 1.96L11.613 2.04L13.943 4.37C14.668 5.095 14.689 6.189 14.023 6.935L13.942 7.016L10.622 10.336C10.444 10.514 10.153 10.525 9.945 10.365L9.908 10.336L9.907 10.335L5.66 6.087C5.485 5.913 5.474 5.622 5.635 5.415L5.669 5.374L8.976 2.04H8.977Z" fill="white" stroke="black"/>
</svg>