<svg width="45" height="45" viewBox="0 0 45 45" fill="none" xmlns="http://www.w3.org/2000/svg">
<path d="M15.1309 4.25H23.0811C23.8362 4.25 24.4561 4.86989 24.4561 5.625V11.0439C24.4562 15.7637 28.2988 19.6063 33.0186 19.6064H38.4375C39.1926 19.6064 39.8125 20.2263 39.8125 20.9814V30.8066C39.8124 34.0306 38.6917 36.5042 36.9141 38.1738C35.1315 39.8481 32.6494 40.7499 29.8691 40.75H15.1309C12.3506 40.7499 9.86854 39.8481 8.08594 38.1738C6.3083 36.5042 5.18759 34.0306 5.1875 30.8066V14.1934C5.18759 10.9694 6.3083 8.49577 8.08594 6.82617C9.86854 5.15194 12.3506 4.25008 15.1309 4.25ZM18.2812 19.1875C17.2364 19.1875 16.375 20.0489 16.375 21.0938V27.7178L15.9023 27.2324L15.8975 27.2275L15.7529 27.0977C15.0574 26.5321 14.0422 26.532 13.3467 27.0977L13.2031 27.2275C12.5102 27.9204 12.4669 29.033 13.0732 29.7783L13.2031 29.9219L16.9082 33.627C16.9505 33.6842 16.9967 33.7209 17.0234 33.7402C17.1583 33.869 17.3427 34.0081 17.5527 34.0928V34.0947C17.783 34.1971 18.0212 34.25 18.2812 34.25C18.5246 34.25 18.7474 34.2012 18.9639 34.1113L18.9648 34.1123C18.9705 34.1104 18.9758 34.1074 18.9814 34.1055C18.9906 34.1016 19.0006 34.0988 19.0098 34.0947L19.0088 34.0938C19.1831 34.029 19.3467 33.9326 19.4863 33.8193L19.6289 33.6914L23.3789 29.9414C24.1179 29.2024 24.1179 27.9851 23.3789 27.2461C22.6862 26.5534 21.5734 26.5103 20.8281 27.1162L20.6836 27.2461L20.1875 27.7422V21.0938C20.1875 20.0489 19.3261 19.1875 18.2812 19.1875Z" fill="white" fill-opacity="0.2" stroke="url(#paint0_linear_636_41)"/>
<path d="M28.0254 4.96875C28.0254 4.41333 28.7029 4.06663 29.1797 4.41797L29.2715 4.49707C30.6587 5.88431 32.5616 7.80108 34.4551 9.71094L39.583 14.8838L39.584 14.8848C39.9897 15.2905 39.7218 16.0371 39.0566 16.0371C37.9966 16.0371 36.8485 16.0375 35.7432 16.0352L32.6865 16.0186H32.6816C30.1134 16.0186 28.0255 13.9609 28.0254 11.5127V4.96875Z" fill="white" fill-opacity="0.2" stroke="url(#paint1_linear_636_41)"/>
<defs>
<linearGradient id="paint0_linear_636_41" x1="1.53021" y1="50.7132" x2="44.912" y2="68.7102" gradientUnits="userSpaceOnUse">
<stop stop-color="white" stop-opacity="0.53"/>
<stop offset="0.0752237" stop-color="white" stop-opacity="0.62"/>
<stop offset="0.25231" stop-color="white" stop-opacity="0.82"/>
<stop offset="0.424188" stop-color="white" stop-opacity="0.49"/>
<stop offset="0.700235" stop-color="white" stop-opacity="0.8"/>
<stop offset="0.965865" stop-color="white" stop-opacity="0.74"/>
</linearGradient>
<linearGradient id="paint1_linear_636_41" x1="26.3949" y1="19.7572" x2="41.6868" y2="26.4332" gradientUnits="userSpaceOnUse">
<stop stop-color="white" stop-opacity="0.53"/>
<stop offset="0.0752237" stop-color="white" stop-opacity="0.62"/>
<stop offset="0.25231" stop-color="white" stop-opacity="0.82"/>
<stop offset="0.424188" stop-color="white" stop-opacity="0.49"/>
<stop offset="0.700235" stop-color="white" stop-opacity="0.8"/>
<stop offset="0.965865" stop-color="white" stop-opacity="0.74"/>
</linearGradient>
</defs>
</svg>
