<svg width="38" height="38" viewBox="0 0 38 38" fill="none" xmlns="http://www.w3.org/2000/svg">
<path d="M10.8936 0.5H26.6064C29.9195 0.500038 32.5039 1.48607 34.2568 3.24121C35.9 4.88666 36.8651 7.2604 36.9717 10.2803L36.9814 10.8926V26.6064C36.9814 29.9194 35.9956 32.5034 34.2402 34.2588C32.4849 36.0142 29.9008 36.9999 26.5879 37H10.8936C7.58059 37 4.99655 36.0144 3.24121 34.2568C1.48585 32.4993 0.500077 29.9105 0.5 26.5879V10.8936C0.500039 7.58058 1.48581 4.99661 3.24121 3.24121C4.88696 1.59547 7.26097 0.626408 10.2812 0.511719L10.8936 0.5ZM18.75 7.46875C17.7051 7.46875 16.8438 8.33011 16.8438 9.375V28.125C16.8438 29.1699 17.7051 30.0312 18.75 30.0312C19.7949 30.0312 20.6562 29.1699 20.6562 28.125V9.375C20.6562 8.33011 19.7949 7.46875 18.75 7.46875ZM13.125 10.1504C12.0801 10.1504 11.2188 11.0117 11.2188 12.0566V25.4434C11.2188 26.4883 12.0801 27.3496 13.125 27.3496C14.1699 27.3496 15.0312 26.4883 15.0312 25.4434V12.0566C15.0312 11.0117 14.1699 10.1504 13.125 10.1504ZM24.375 10.1504C23.3301 10.1504 22.4688 11.0117 22.4688 12.0566V25.4434C22.4688 26.4883 23.3301 27.3496 24.375 27.3496C25.4199 27.3496 26.2812 26.4883 26.2812 25.4434V12.0566C26.2812 11.0117 25.4199 10.1504 24.375 10.1504ZM7.5 12.8311C6.45517 12.8311 5.59386 13.6925 5.59375 14.7373V22.7627C5.59386 23.8075 6.45517 24.6689 7.5 24.6689C8.54483 24.6689 9.40614 23.8075 9.40625 22.7627V14.7373C9.40614 13.6925 8.54483 12.8311 7.5 12.8311ZM30 12.8311C28.9552 12.8311 28.0939 13.6925 28.0938 14.7373V22.7627C28.0939 23.8075 28.9552 24.6689 30 24.6689C31.0448 24.6689 31.9061 23.8075 31.9062 22.7627V14.7373C31.9061 13.6925 31.0448 12.8311 30 12.8311Z" fill="white" fill-opacity="0.2" stroke="url(#paint0_linear_646_16)"/>
<defs>
<linearGradient id="paint0_linear_646_16" x1="-3.32181" y1="46.9632" x2="41.615" y2="66.5766" gradientUnits="userSpaceOnUse">
<stop stop-color="white" stop-opacity="0.53"/>
<stop offset="0.0752237" stop-color="white" stop-opacity="0.62"/>
<stop offset="0.25231" stop-color="white" stop-opacity="0.82"/>
<stop offset="0.424188" stop-color="white" stop-opacity="0.49"/>
<stop offset="0.700235" stop-color="white" stop-opacity="0.8"/>
<stop offset="0.965865" stop-color="white" stop-opacity="0.74"/>
</linearGradient>
</defs>
</svg>
