<svg width="32" height="32" viewBox="0 0 32 32" fill="none" xmlns="http://www.w3.org/2000/svg">
<g clip-path="url(#clip0_541_2)">
<mask id="mask0_541_2" style="mask-type:luminance" maskUnits="userSpaceOnUse" x="0" y="0" width="32" height="32">
<path d="M32 0H0V32H32V0Z" fill="white"/>
</mask>
<g mask="url(#mask0_541_2)">
<path d="M10.4138 3.1665H21.5866C23.3743 3.1665 24.8428 3.57065 25.9772 4.31689L26.1999 4.47119L26.2097 4.47803C26.6559 4.78623 27.0564 5.16938 27.3854 5.60205L27.5222 5.79053L27.529 5.80029C28.3733 6.96277 28.8337 8.50667 28.8337 10.4136V21.5864C28.8337 23.9137 28.1416 25.7111 26.9265 26.9263C25.7113 28.1414 23.9138 28.8335 21.5866 28.8335H10.4138C10.1635 28.8335 9.91034 28.8204 9.6579 28.8071H9.65887C8.19272 28.7117 6.96663 28.3173 5.99286 27.6636L5.80243 27.5298L5.79071 27.522L5.60223 27.3853C5.23141 27.1032 4.89699 26.7688 4.61493 26.3979L4.47821 26.2095L4.47137 26.1997L4.31708 25.9771C3.57084 24.8427 3.16669 23.3741 3.16669 21.5864V10.4136C3.16669 8.21381 3.78598 6.4868 4.87762 5.28076C5.96744 4.07679 7.57586 3.33893 9.65887 3.20557L9.66864 3.20459L9.67938 3.20361C9.91402 3.17893 10.1634 3.1665 10.4138 3.1665ZM7.99969 6.49951C7.79655 6.49956 7.62128 6.54134 7.46844 6.59229L7.44989 6.59814L7.43231 6.60596C7.04988 6.76711 6.77541 7.06631 6.62274 7.40967L6.61884 7.41846L6.61591 7.42725C6.54353 7.60819 6.49974 7.79152 6.49969 7.99951V13.3335C6.49987 14.156 7.17714 14.8333 7.99969 14.8335C8.8224 14.8335 9.49952 14.1562 9.49969 13.3335V11.6196L13.8786 15.9995L9.49969 20.3794V18.6665C9.49969 17.8437 8.8225 17.1665 7.99969 17.1665C7.17703 17.1667 6.49969 17.8438 6.49969 18.6665V23.9995C6.49969 24.2028 6.5415 24.3788 6.59247 24.5317L6.59833 24.5493L6.60614 24.5669C6.74718 24.9019 6.99405 25.154 7.28387 25.314L7.40985 25.3765C7.59784 25.46 7.80121 25.4995 7.99969 25.4995H13.3337C14.1563 25.4993 14.8337 24.8222 14.8337 23.9995C14.8335 23.177 14.1562 22.4997 13.3337 22.4995H11.6208L15.9987 18.1206L20.3708 22.5132H18.653C17.8304 22.5134 17.153 23.1905 17.153 24.0132C17.153 24.8359 17.8304 25.513 18.653 25.5132H23.987C24.1821 25.5131 24.3809 25.4737 24.5661 25.3931L24.5671 25.394L24.5681 25.3931C24.5708 25.3919 24.5741 25.3913 24.5768 25.3901L24.5759 25.3892C24.9539 25.2271 25.2251 24.9303 25.3766 24.5894L25.3845 24.5718C25.4568 24.3909 25.4997 24.2075 25.4997 23.9995V18.6665C25.4997 17.8437 24.8225 17.1665 23.9997 17.1665C23.177 17.1667 22.4997 17.8438 22.4997 18.6665V20.3784L18.1198 15.9995L22.4997 11.6206V13.3335C22.4999 14.156 23.1771 14.8333 23.9997 14.8335C24.8224 14.8335 25.4995 14.1562 25.4997 13.3335V7.99951C25.4997 7.79637 25.4588 7.6211 25.4079 7.46826L25.402 7.44971L25.3942 7.43213L25.3278 7.29443C25.1578 6.98326 24.8903 6.75623 24.5895 6.62256L24.5807 6.61865L24.572 6.61572L24.4362 6.56689C24.2985 6.52409 24.1559 6.49951 23.9997 6.49951H18.6667C17.844 6.49951 17.1669 7.17685 17.1667 7.99951C17.1667 8.82232 17.8439 9.49951 18.6667 9.49951H20.3796L15.9997 13.8784L11.6208 9.49951H13.3337C14.1563 9.49933 14.8337 8.82221 14.8337 7.99951C14.8335 7.17696 14.1562 6.49969 13.3337 6.49951H7.99969Z" fill="#262626" stroke="#BBBBBB"/>
</g>
</g>
<defs>
<clipPath id="clip0_541_2">
<rect width="32" height="32" fill="white"/>
</clipPath>
</defs>
</svg>
