<svg width="38" height="40" viewBox="0 0 38 40" fill="none" xmlns="http://www.w3.org/2000/svg">
<path d="M36.7458 24.1V30.4C36.7458 35.0391 32.9755 38.8 28.3247 38.8H15.7388C13.0625 38.8 10.5457 37.5312 8.9585 35.3816L1.68351 25.5297C0.567031 24.0177 0.846389 21.896 2.31644 20.723C3.81436 19.5277 5.97391 19.6477 7.32943 21.0017L11.4826 25.15V22H11.4909L11.4826 17.8L11.5194 8.35C11.5194 6.6103 12.9332 5.2 14.6773 5.2C16.4213 5.2 17.8352 6.6103 17.8352 8.35V17.8V4.15C17.8352 2.4103 19.249 1 20.9932 1C22.7372 1 24.1511 2.4103 24.1511 4.15V17.8V6.25C24.1511 4.5103 25.5647 3.1 27.3089 3.1C29.0529 3.1 30.4668 4.5103 30.4668 6.25V17.8V10.45C30.4668 8.7103 31.8805 7.3 33.6247 7.3C35.3687 7.3 36.7826 8.7103 36.7826 10.45L36.7582 24.1H36.7458Z" fill="white" fill-opacity="0.2" stroke="url(#paint0_linear_636_48)" stroke-linecap="round" stroke-linejoin="round"/>
<defs>
<linearGradient id="paint0_linear_636_48" x1="-2.17126" y1="48.3389" x2="41.4478" y2="66.3701" gradientUnits="userSpaceOnUse">
<stop stop-color="white" stop-opacity="0.53"/>
<stop offset="0.0752237" stop-color="white" stop-opacity="0.62"/>
<stop offset="0.25231" stop-color="white" stop-opacity="0.82"/>
<stop offset="0.424188" stop-color="white" stop-opacity="0.49"/>
<stop offset="0.700235" stop-color="white" stop-opacity="0.8"/>
<stop offset="0.965865" stop-color="white" stop-opacity="0.74"/>
</linearGradient>
</defs>
</svg>
