<svg width="19" height="20" viewBox="0 0 19 20" fill="none" xmlns="http://www.w3.org/2000/svg">
<path d="M18 12V15C18 17.2091 16.2091 19 14 19H8.02167C6.75046 19 5.55494 18.3958 4.80104 17.3722L1.34542 12.6808C0.815091 11.9608 0.947786 10.9505 1.64606 10.3919C2.35757 9.82272 3.38336 9.87988 4.02723 10.5246L6.00001 12.5V11H6.00394L6.00001 9L6.01746 4.5C6.01746 3.67157 6.68903 3 7.51746 3C8.34589 3 9.01746 3.67157 9.01746 4.5V9V2.5C9.01746 1.67157 9.68903 1 10.5175 1C11.3459 1 12.0175 1.67157 12.0175 2.5V9V3.5C12.0175 2.67157 12.689 2 13.5175 2C14.3459 2 15.0175 2.67157 15.0175 3.5V9V5.5C15.0175 4.67157 15.689 4 16.5175 4C17.3459 4 18.0175 4.67157 18.0175 5.5L18.0059 12H18Z" stroke="#BBBBBB" stroke-linecap="round" stroke-linejoin="round"/>
</svg>
