<svg xmlns="http://www.w3.org/2000/svg" width="16" height="16" viewBox="0 0 16 16">
  <path d="M13.372 1.567C13.651 1.463 13.922 1.534 14.131 1.715L14.168 1.75C14.38 1.962 14.483 2.25 14.387 2.56C13.513 4.865 11.413 8.245 9.267 10.219C8.899 8.544 7.685 7.178 6.265 6.768C8.21 4.745 10.946 2.663 13.372 1.567Z" fill="white" stroke="black"/>
  <path d="M6.277 7.047C7.597 7.23 8.715 8.278 9.002 9.588L9.06 9.796L9.118 10.145C9.076 10.18 9.035 10.215 8.993 10.248L8.793 10.412L7.83 11.138C7.7 10.5 7.418 9.898 6.998 9.432L6.892 9.321C6.4 8.83 5.755 8.543 5.04 8.399L5.826 7.412C5.897 7.322 5.973 7.237 6.055 7.149L6.277 7.047Z" fill="white" stroke="black"/>
  <path d="M4.193 9.226C4.31 9.22 4.442 9.225 4.57 9.238C5.103 9.306 5.621 9.541 6.06 9.972C6.433 10.346 6.668 10.774 6.757 11.274L6.772 11.379C6.786 11.523 6.797 11.646 6.797 11.765C6.797 12.443 6.556 13.086 6.113 13.569C5.75 13.946 5.28 14.205 4.688 14.302L3.072 14.481C2.373 14.56 1.741 13.944 1.781 13.241L2.008 11.147C2.193 9.638 3.347 9.248 4.193 9.226Z" fill="white" stroke="black"/>
</svg>