<svg width="37" height="37" viewBox="0 0 37 37" fill="none" xmlns="http://www.w3.org/2000/svg">
<path d="M26.2461 0.5H10.7354C7.46598 0.500012 4.91646 1.47188 3.1875 3.20215C1.56685 4.82408 0.615122 7.16456 0.509766 10.1426L0.5 10.7471V26.252C0.50009 29.5191 1.47291 32.0664 3.2041 33.7969C4.93551 35.5274 7.4846 36.5 10.7539 36.5H26.2461C29.5154 36.5 32.0646 35.5276 33.7959 33.7949C35.5271 32.0623 36.4999 29.5102 36.5 26.2334V10.748L36.4883 10.1445C36.3751 7.16593 35.419 4.82551 33.7959 3.20312C32.1727 1.58073 29.8309 0.624841 26.8506 0.511719L26.2461 0.5ZM23.5049 9.0625C24.1912 8.37667 25.2931 8.33434 26.0312 8.93457L26.1738 9.0625L29.0801 11.9678C29.8114 12.6991 29.8116 13.902 29.0811 14.6338V14.6348L26.1748 17.5576L26.1738 17.5586C25.7976 17.9347 25.3168 18.1122 24.8398 18.1123C24.3628 18.1123 23.8812 17.9348 23.5049 17.5586C22.8682 16.9222 22.7741 15.9749 23.2041 15.2441H14.9365C12.8251 15.2444 11.1242 16.9449 11.124 19.0547C11.124 21.1633 12.8421 22.865 14.9365 22.8652H24.0439C25.0785 22.8655 25.9316 23.7182 25.9316 24.7529C25.9316 25.7877 25.0785 26.6404 24.0439 26.6406H14.9365C10.7571 26.6404 7.34766 23.2547 7.34766 19.0732C7.3478 14.8936 10.7555 11.4885 14.9365 11.4883H23.3027C22.8187 10.8048 22.8417 9.86152 23.376 9.20508L23.5049 9.0625Z" fill="white" fill-opacity="0.2" stroke="url(#paint0_linear_361_1317)"/>
<defs>
<linearGradient id="paint0_linear_361_1317" x1="40.2792" y1="46.337" x2="-4.07348" y2="65.7052" gradientUnits="userSpaceOnUse">
<stop stop-color="white" stop-opacity="0.53"/>
<stop offset="0.0752237" stop-color="white" stop-opacity="0.62"/>
<stop offset="0.25231" stop-color="white" stop-opacity="0.82"/>
<stop offset="0.424188" stop-color="white" stop-opacity="0.49"/>
<stop offset="0.700235" stop-color="white" stop-opacity="0.8"/>
<stop offset="0.965865" stop-color="white" stop-opacity="0.74"/>
</linearGradient>
</defs>
</svg>
