<svg width="38" height="31" viewBox="0 0 38 31" fill="none" xmlns="http://www.w3.org/2000/svg">
<path d="M15.7402 0.5H28.5039C33.4746 0.500185 37.4998 4.48963 37.5 9.39355V21.6064C37.4998 26.5104 33.4746 30.4998 28.5039 30.5H15.7402C13.3616 30.5 11.0928 29.5614 9.40918 27.918L9.08008 27.5791L2.37695 20.291C-0.0468783 17.6553 -0.122877 13.6877 2.14941 10.9688L2.37695 10.709L9.08105 3.41992L9.08203 3.41895C10.6836 1.66788 12.9022 0.63504 15.2656 0.512695L15.7402 0.5ZM27.9629 9.50781C27.2639 8.81636 26.1433 8.77392 25.3916 9.37891L25.2461 9.50781L21.9131 12.8047L18.5801 9.50781C17.881 8.81646 16.7604 8.7738 16.0088 9.37891L15.8633 9.50781C15.1614 10.2021 15.1181 11.3193 15.7324 12.0664L15.8633 12.2109L19.1885 15.5L15.8633 18.7891C15.1614 19.4834 15.1181 20.6006 15.7324 21.3477L15.8633 21.4922C16.2472 21.872 16.7371 22.0498 17.2217 22.0498C17.6458 22.0498 18.074 21.9136 18.4316 21.625L18.5801 21.4922L21.9131 18.1943L25.2461 21.4922C25.63 21.8719 26.12 22.0498 26.6045 22.0498C27.0284 22.0498 27.456 21.9133 27.8135 21.625L27.9629 21.4922C28.6648 20.7979 28.708 19.6807 28.0938 18.9336L27.9629 18.7891L24.6367 15.5L27.9629 12.2109C28.6648 11.5166 28.708 10.3994 28.0938 9.65234L27.9629 9.50781Z" fill="white" fill-opacity="0.22" stroke="url(#paint0_linear_361_1288)"/>
<defs>
<linearGradient id="paint0_linear_361_1288" x1="-3.36778" y1="38.8229" x2="38.7901" y2="61.3897" gradientUnits="userSpaceOnUse">
<stop stop-color="white" stop-opacity="0.53"/>
<stop offset="0.0752237" stop-color="white" stop-opacity="0.62"/>
<stop offset="0.25231" stop-color="white" stop-opacity="0.82"/>
<stop offset="0.424188" stop-color="white" stop-opacity="0.49"/>
<stop offset="0.700235" stop-color="white" stop-opacity="0.8"/>
<stop offset="0.965865" stop-color="white" stop-opacity="0.74"/>
</linearGradient>
</defs>
</svg>
