<svg width="25" height="36" viewBox="0 0 25 36" fill="none" xmlns="http://www.w3.org/2000/svg">
<mask id="path-1-inside-1_361_1295" fill="white">
<path d="M0.878906 0.208984H24.1211V5.7998H15.8691V36H9.15527V5.7998H0.878906V0.208984Z"/>
</mask>
<path d="M0.878906 0.208984H24.1211V5.7998H15.8691V36H9.15527V5.7998H0.878906V0.208984Z" fill="white" fill-opacity="0.2"/>
<path d="M0.878906 0.208984V-0.791016H-0.121094V0.208984H0.878906ZM24.1211 0.208984H25.1211V-0.791016H24.1211V0.208984ZM24.1211 5.7998V6.7998H25.1211V5.7998H24.1211ZM15.8691 5.7998V4.7998H14.8691V5.7998H15.8691ZM15.8691 36V37H16.8691V36H15.8691ZM9.15527 36H8.15527V37H9.15527V36ZM9.15527 5.7998H10.1553V4.7998H9.15527V5.7998ZM0.878906 5.7998H-0.121094V6.7998H0.878906V5.7998ZM0.878906 0.208984V1.20898H24.1211V0.208984V-0.791016H0.878906V0.208984ZM24.1211 0.208984H23.1211V5.7998H24.1211H25.1211V0.208984H24.1211ZM24.1211 5.7998V4.7998H15.8691V5.7998V6.7998H24.1211V5.7998ZM15.8691 5.7998H14.8691V36H15.8691H16.8691V5.7998H15.8691ZM15.8691 36V35H9.15527V36V37H15.8691V36ZM9.15527 36H10.1553V5.7998H9.15527H8.15527V36H9.15527ZM9.15527 5.7998V4.7998H0.878906V5.7998V6.7998H9.15527V5.7998ZM0.878906 5.7998H1.87891V0.208984H0.878906H-0.121094V5.7998H0.878906Z" fill="url(#paint0_linear_361_1295)" mask="url(#path-1-inside-1_361_1295)"/>
<defs>
<linearGradient id="paint0_linear_361_1295" x1="-2.21564" y1="38.5611" x2="28.1189" y2="51.2983" gradientUnits="userSpaceOnUse">
<stop stop-color="white" stop-opacity="0.53"/>
<stop offset="0.0752237" stop-color="white" stop-opacity="0.62"/>
<stop offset="0.25231" stop-color="white" stop-opacity="0.82"/>
<stop offset="0.424188" stop-color="white" stop-opacity="0.49"/>
<stop offset="0.700235" stop-color="white" stop-opacity="0.8"/>
<stop offset="0.965865" stop-color="white" stop-opacity="0.74"/>
</linearGradient>
</defs>
</svg>
