<svg width="45" height="45" viewBox="0 0 45 45" fill="none" xmlns="http://www.w3.org/2000/svg">
<path d="M13.0791 0.5H31.9434C35.9411 0.5 39.0715 1.68909 41.1992 3.81836C43.1938 5.8144 44.3594 8.6887 44.4883 12.332L44.5 13.0713V31.9277C44.5 35.9231 43.3102 39.0522 41.1797 41.1816C39.0491 43.3111 35.9185 44.5 31.9209 44.5H13.0791C9.08143 44.5 5.95086 43.3109 3.82031 41.1787C1.68983 39.0466 0.500054 35.9122 0.5 31.9053V13.0723C0.500046 9.07688 1.68978 5.94783 3.82031 3.81836C5.95091 1.68894 9.08155 0.5 13.0791 0.5ZM11.2949 9.17676C9.29325 9.01881 7.64958 10.5309 7.64941 12.5547V29.8799C7.64941 31.4735 8.87908 32.9273 10.4316 33.21L10.583 33.2334L10.5957 33.2344L11.0127 33.2773V33.2783C13.2781 33.5665 16.5048 34.519 19.1201 35.5908L19.6348 35.8066L19.6367 35.8076C20.7125 36.2638 21.8857 35.4771 21.8857 34.3125V13.7021C21.8856 13.1704 21.6337 12.6041 21.0908 12.2988H21.0898C18.5889 10.8772 14.7126 9.58069 11.8535 9.2334L11.2959 9.17676H11.2949ZM33.6094 9.17676C30.942 9.41526 27.1348 10.5979 24.4717 11.9756L23.9551 12.2539H23.9541C23.423 12.5526 23.1368 13.1104 23.1367 13.6797V34.2676C23.1368 35.4314 24.3076 36.217 25.3828 35.7627L25.3838 35.7637C28.0728 34.6309 31.5536 33.5895 33.9521 33.2568L34.4219 33.2129L34.4395 33.2109C36.0625 32.9982 37.373 31.5024 37.373 29.8574V12.8027C37.373 10.7939 35.7534 9.1748 33.7441 9.1748H33.6318L33.6094 9.17676Z" fill="white" fill-opacity="0.2" stroke="url(#paint0_linear_470_50)"/>
<defs>
<linearGradient id="paint0_linear_470_50" x1="-3.98816" y1="56.3558" x2="49.9542" y2="79.9117" gradientUnits="userSpaceOnUse">
<stop stop-color="white" stop-opacity="0.53"/>
<stop offset="0.0752237" stop-color="white" stop-opacity="0.62"/>
<stop offset="0.25231" stop-color="white" stop-opacity="0.82"/>
<stop offset="0.424188" stop-color="white" stop-opacity="0.49"/>
<stop offset="0.700235" stop-color="white" stop-opacity="0.8"/>
<stop offset="0.965865" stop-color="white" stop-opacity="0.74"/>
</linearGradient>
</defs>
</svg>
