<svg width="37" height="37" viewBox="0 0 37 37" fill="none" xmlns="http://www.w3.org/2000/svg">
<path d="M10.7539 0.5H26.2646C29.534 0.500012 32.0835 1.47188 33.8125 3.20215C35.4332 4.82408 36.3849 7.16456 36.4902 10.1426L36.5 10.7471V26.252C36.4999 29.5191 35.5271 32.0664 33.7959 33.7969C32.0645 35.5274 29.5154 36.5 26.2461 36.5H10.7539C7.4846 36.5 4.93545 35.5276 3.2041 33.7949C1.4729 32.0623 0.500079 29.5102 0.5 26.2334V10.748L0.511719 10.1445C0.624861 7.16593 1.58098 4.82551 3.2041 3.20312C4.82731 1.58073 7.16914 0.624841 10.1494 0.511719L10.7539 0.5ZM13.4951 9.0625C12.8088 8.37667 11.7069 8.33434 10.9688 8.93457L10.8262 9.0625L7.91992 11.9678C7.18861 12.6991 7.18844 13.902 7.91895 14.6338V14.6348L10.8252 17.5576L10.8262 17.5586C11.2024 17.9347 11.6832 18.1122 12.1602 18.1123C12.6372 18.1123 13.1188 17.9348 13.4951 17.5586C14.1318 16.9222 14.2259 15.9749 13.7959 15.2441H22.0635C24.1749 15.2444 25.8758 16.9449 25.876 19.0547C25.876 21.1633 24.1579 22.865 22.0635 22.8652H12.9561C11.9215 22.8655 11.0684 23.7182 11.0684 24.7529C11.0684 25.7877 11.9215 26.6404 12.9561 26.6406H22.0635C26.2429 26.6404 29.6523 23.2547 29.6523 19.0732C29.6522 14.8936 26.2445 11.4885 22.0635 11.4883H13.6973C14.1813 10.8048 14.1583 9.86152 13.624 9.20508L13.4951 9.0625Z" fill="white" fill-opacity="0.2" stroke="url(#paint0_linear_361_1314)"/>
<defs>
<linearGradient id="paint0_linear_361_1314" x1="-3.27915" y1="46.337" x2="41.0735" y2="65.7052" gradientUnits="userSpaceOnUse">
<stop stop-color="white" stop-opacity="0.53"/>
<stop offset="0.0752237" stop-color="white" stop-opacity="0.62"/>
<stop offset="0.25231" stop-color="white" stop-opacity="0.82"/>
<stop offset="0.424188" stop-color="white" stop-opacity="0.49"/>
<stop offset="0.700235" stop-color="white" stop-opacity="0.8"/>
<stop offset="0.965865" stop-color="white" stop-opacity="0.74"/>
</linearGradient>
</defs>
</svg>
