<svg width="45" height="45" viewBox="0 0 45 45" fill="none" xmlns="http://www.w3.org/2000/svg">
<path d="M15.1309 4.25H23.0811C23.8362 4.25 24.4561 4.86989 24.4561 5.625V11.0439C24.4562 15.7637 28.2988 19.6063 33.0186 19.6064H38.4375C39.1926 19.6064 39.8125 20.2263 39.8125 20.9814V30.8066C39.8124 34.0306 38.6917 36.5042 36.9141 38.1738C35.1315 39.8481 32.6494 40.7499 29.8691 40.75H15.1309C12.3506 40.7499 9.86854 39.8481 8.08594 38.1738C6.3083 36.5042 5.18759 34.0306 5.1875 30.8066V14.1934C5.18759 10.9694 6.3083 8.49577 8.08594 6.82617C9.86854 5.15194 12.3506 4.25008 15.1309 4.25ZM16.7109 18.7236C16.5772 18.7427 16.4252 18.7665 16.2666 18.8193L16.2334 18.8311L16.2012 18.8467H16.2002C16.194 18.8493 16.1863 18.8524 16.1738 18.8574C16.163 18.8618 16.1468 18.8683 16.1309 18.875C16.115 18.8817 16.0933 18.8909 16.0703 18.9023C15.8739 19.0005 15.7083 19.1211 15.5557 19.252L15.541 19.2637L11.7773 23.0273C11.0846 23.7201 11.0415 24.8328 11.6475 25.5781L11.7773 25.7227C12.4701 26.4154 13.5828 26.4585 14.3281 25.8525L14.4727 25.7227L14.9688 25.2256V31.875C14.9688 32.9199 15.8301 33.7812 16.875 33.7812C17.9199 33.7812 18.7812 32.9199 18.7812 31.875V25.2256L19.2773 25.7227C19.6573 26.1026 20.1433 26.2812 20.625 26.2812C21.1067 26.2812 21.5927 26.1026 21.9727 25.7227C22.7117 24.9836 22.7117 23.7664 21.9727 23.0273L18.2617 19.3164C18.219 19.2605 18.1735 19.2248 18.1484 19.207C18.0078 19.0733 17.8148 18.9274 17.5947 18.8447L17.5098 18.8125H17.4629C17.3037 18.76 17.1246 18.7188 16.9316 18.7188H16.7461L16.7109 18.7236Z" fill="white" fill-opacity="0.2" stroke="url(#paint0_linear_361_1320)"/>
<path d="M28.0254 4.96973C28.0254 4.41431 28.7029 4.0676 29.1797 4.41895L29.2715 4.49805C30.6587 5.88528 32.5616 7.80206 34.4551 9.71191L39.583 14.8848L39.584 14.8857C39.9897 15.2914 39.7218 16.0381 39.0566 16.0381C37.9966 16.0381 36.8485 16.0385 35.7432 16.0361L32.6865 16.0195H32.6816C30.1134 16.0195 28.0255 13.9618 28.0254 11.5137V4.96973Z" fill="white" fill-opacity="0.2" stroke="url(#paint1_linear_361_1320)"/>
<defs>
<linearGradient id="paint0_linear_361_1320" x1="1.53021" y1="50.7132" x2="44.912" y2="68.7102" gradientUnits="userSpaceOnUse">
<stop stop-color="white" stop-opacity="0.53"/>
<stop offset="0.0752237" stop-color="white" stop-opacity="0.62"/>
<stop offset="0.25231" stop-color="white" stop-opacity="0.82"/>
<stop offset="0.424188" stop-color="white" stop-opacity="0.49"/>
<stop offset="0.700235" stop-color="white" stop-opacity="0.8"/>
<stop offset="0.965865" stop-color="white" stop-opacity="0.74"/>
</linearGradient>
<linearGradient id="paint1_linear_361_1320" x1="26.3949" y1="19.7582" x2="41.6868" y2="26.4342" gradientUnits="userSpaceOnUse">
<stop stop-color="white" stop-opacity="0.53"/>
<stop offset="0.0752237" stop-color="white" stop-opacity="0.62"/>
<stop offset="0.25231" stop-color="white" stop-opacity="0.82"/>
<stop offset="0.424188" stop-color="white" stop-opacity="0.49"/>
<stop offset="0.700235" stop-color="white" stop-opacity="0.8"/>
<stop offset="0.965865" stop-color="white" stop-opacity="0.74"/>
</linearGradient>
</defs>
</svg>
