<svg width="47" height="47" viewBox="0 0 47 47" fill="none" xmlns="http://www.w3.org/2000/svg">
<circle cx="23.5" cy="23.5" r="20.3243" fill="white" stroke="url(#paint0_linear_833_236)" stroke-width="6.35135"/>
<path d="M25.3047 20.4674L32.7793 14.8746L35.5664 19.8346L27.1416 23.5319L35.5664 27.2281L32.7793 32.1569L25.3359 26.7223L26.3184 35.8219H20.6807L21.6621 26.691L14.2188 32.1569L11.4316 27.2281L19.8887 23.5319L11.4316 19.8346L14.2188 14.8746L21.6934 20.4674L20.6807 11.1783H26.3184L25.3047 20.4674Z" fill="black"/>
<path d="M25.3047 20.4674L32.7793 14.8746L35.5664 19.8346L27.1416 23.5319L35.5664 27.2281L32.7793 32.1569L25.3359 26.7223L26.3184 35.8219H20.6807L21.6621 26.691L14.2188 32.1569L11.4316 27.2281L19.8887 23.5319L11.4316 19.8346L14.2188 14.8746L21.6934 20.4674L20.6807 11.1783H26.3184L25.3047 20.4674Z" stroke="url(#paint1_linear_833_236)"/>
<defs>
<linearGradient id="paint0_linear_833_236" x1="-4.16541" y1="58.8605" x2="52.1744" y2="83.4633" gradientUnits="userSpaceOnUse">
<stop stop-color="white" stop-opacity="0.05"/>
<stop offset="0.0752237" stop-color="white" stop-opacity="0.61"/>
<stop offset="0.25231" stop-color="white" stop-opacity="0.28"/>
<stop offset="0.424188" stop-color="white" stop-opacity="0.51"/>
<stop offset="0.700235" stop-color="white" stop-opacity="0.04"/>
<stop offset="0.965865" stop-color="white" stop-opacity="0.74"/>
</linearGradient>
<linearGradient id="paint1_linear_833_236" x1="9.29265" y1="42.0404" x2="38.4143" y2="54.4951" gradientUnits="userSpaceOnUse">
<stop stop-color="white" stop-opacity="0.05"/>
<stop offset="0.0752237" stop-color="white" stop-opacity="0.61"/>
<stop offset="0.25231" stop-color="white" stop-opacity="0.28"/>
<stop offset="0.424188" stop-color="white" stop-opacity="0.51"/>
<stop offset="0.700235" stop-color="white" stop-opacity="0.04"/>
<stop offset="0.965865" stop-color="white" stop-opacity="0.74"/>
</linearGradient>
</defs>
</svg>
